<?xml version="1.0" encoding="utf-8"?>
<!-- Generator: Adobe Illustrator 25.1.0, SVG Export Plug-In . SVG Version: 6.00 Build 0)  -->
<svg version="1.1" id="Layer_1" xmlns="http://www.w3.org/2000/svg" xmlns:xlink="http://www.w3.org/1999/xlink" x="0px" y="0px"
	 viewBox="0 0 677.5 254" style="enable-background:new 0 0 677.5 254;" xml:space="preserve">
<style type="text/css">
	.st0{fill:#15202B;}
	.st1{fill:#0798F2;}
	.st2{opacity:0.54;}
	.st3{fill:#8698A6;}
	.st4{font-family:'HelveticaNeueLTPro-Roman';}
	.st5{font-size:17px;}
	.st6{font-size:18px;}
	.st7{fill:#FFFFFF;}
	.st8{font-family:'HelveticaNeueLTPro-Bd';}
	.st9{font-size:26px;}
	.st10{letter-spacing:-1;}
	.st11{fill:#DD2E44;}
	.st12{fill:#FDCB58;}
	.st13{filter:url(#Adobe_OpacityMaskFilter);}
	.st14{mask:url(#SVGID_1_);}
	.st15{enable-background:new    ;}
</style>
<g id="Layer_2_1_">
	<g id="Layer_2-2">
		<path class="st0" d="M23.4,0h630.7c12.9,0,23.4,10.5,23.4,23.4v207.2c0,12.9-10.5,23.4-23.4,23.4H23.4C10.5,254,0,243.5,0,230.6
			V23.4C0,10.5,10.5,0,23.4,0z"/>
		<path class="st1" d="M643.4,42.6c-3.1,0-6.2-0.9-8.8-2.6c0.5,0,0.9,0.1,1.4,0.1c2.6,0,5.1-0.9,7.1-2.5c-2.5-0.1-4.6-1.7-5.4-4
			c0.4,0.1,0.7,0.1,1.1,0.1c0.5,0,1-0.1,1.5-0.2c-2.7-0.5-4.6-2.9-4.6-5.6v-0.1c0.8,0.4,1.7,0.7,2.6,0.7c-2.5-1.7-3.3-5-1.8-7.7
			c2.9,3.6,7.2,5.8,11.8,6c-0.1-0.4-0.1-0.9-0.1-1.3c0-3.2,2.6-5.7,5.7-5.7c1.6,0,3.1,0.7,4.2,1.8c1.3-0.2,2.5-0.7,3.7-1.4
			c-0.4,1.3-1.3,2.5-2.5,3.2c1.1-0.1,2.2-0.4,3.3-0.9c-0.8,1.2-1.7,2.2-2.9,3c0,0.2,0,0.5,0,0.7C659.8,33.8,654,42.6,643.4,42.6"/>
		<g class="st2">
			<text transform="matrix(1 0 0 1 18.89 227.86)" class="st3 st4 st5">9</text>
			<text transform="matrix(1 0 0 1 28.31 227.86)" class="st3 st4 st5">:</text>
			<text transform="matrix(1 0 0 1 32.15 227.86)" class="st3 st4 st5">1</text>
			<text transform="matrix(1 0 0 1 41.11 227.86)" class="st3 st4 st5">1</text>
			<text transform="matrix(1 0 0 1 50.56 227.86)" class="st3 st4 st5"> </text>
			<text transform="matrix(1 0 0 1 54.27 227.86)" class="st3 st4 st5">P</text>
			<text transform="matrix(1 0 0 1 64.55 227.86)" class="st3 st4 st5">M</text>
			<text transform="matrix(1 0 0 1 79.36 227.86)" class="st3 st4 st5"> </text>
			<text transform="matrix(1 0 0 1 83.4 227.86)" class="st3 st4 st5">·</text>
			<text transform="matrix(1 0 0 1 88.13 227.86)" class="st3 st4 st5"> </text>
			<text transform="matrix(1 0 0 1 92.52 227.86)" class="st3 st4 st5">O</text>
			<text transform="matrix(1 0 0 1 105.08 227.86)" class="st3 st4 st5">c</text>
			<text transform="matrix(1 0 0 1 113.9 227.86)" class="st3 st4 st5">t</text>
			<text transform="matrix(1 0 0 1 119.26 227.86)" class="st3 st4 st5"> </text>
			<text transform="matrix(1 0 0 1 123.3 227.86)" class="st3 st4 st5">2</text>
			<text transform="matrix(1 0 0 1 132.87 227.86)" class="st3 st4 st5">7</text>
			<text transform="matrix(1 0 0 1 140.85 227.86)" class="st3 st4 st5">, </text>
			<text transform="matrix(1 0 0 1 150.3 227.86)" class="st3 st4 st5">2</text>
			<text transform="matrix(1 0 0 1 159.41 227.86)" class="st3 st4 st5">0</text>
			<text transform="matrix(1 0 0 1 168.97 227.86)" class="st3 st4 st5">1</text>
			<text transform="matrix(1 0 0 1 177.64 227.86)" class="st3 st4 st5">8</text>
			<text transform="matrix(1 0 0 1 187.09 227.86)" class="st3 st4 st5"> </text>
			<text transform="matrix(1 0 0 1 190.79 227.86)" class="st3 st4 st5">·</text>
			<text transform="matrix(1 0 0 1 195.52 227.86)" class="st3 st4 st5"> </text>
			<text transform="matrix(1 0 0 1 198.89 227.86)" class="st3 st4 st5">C</text>
			<text transform="matrix(1 0 0 1 210.31 227.86)" class="st3 st4 st5">u</text>
			<text transform="matrix(1 0 0 1 219.69 227.86)" class="st3 st4 st5">r</text>
			<text transform="matrix(1 0 0 1 225.68 227.86)" class="st3 st4 st5">io</text>
			<text transform="matrix(1 0 0 1 239.68 227.86)" class="st3 st4 st5">u</text>
			<text transform="matrix(1 0 0 1 248.08 227.86)" class="st3 st4 st5">s</text>
			<text transform="matrix(1 0 0 1 255.56 227.86)" class="st3 st4 st5"> </text>
			<text transform="matrix(1 0 0 1 260.63 227.86)" class="st3 st4 st5">C</text>
			<text transform="matrix(1 0 0 1 271.68 227.86)" class="st3 st4 st5">a</text>
			<text transform="matrix(1 0 0 1 280.01 227.86)" class="st3 st4 st5">t</text>
		</g>
		<text transform="matrix(1 0 0 1 85.7318 59.63)" class="st3 st4 st6">@</text>
		<text transform="matrix(1 0 0 1 99.8818 59.63)" class="st3 st4 st6">e</text>
		<text transform="matrix(1 0 0 1 109.4018 59.63)" class="st3 st4 st6">z</text>
		<text transform="matrix(1 0 0 1 117.8418 59.63)" class="st3 st4 st6">l</text>
		<text transform="matrix(1 0 0 1 121.7118 59.63)" class="st3 st4 st6">r</text>
		<text transform="matrix(1 0 0 1 127.8718 59.63)" class="st3 st4 st6">s</text>
		<text transform="matrix(1 0 0 1 85.21 36.47)" class="st7 st8 st6">eyz</text>
		<path class="st7" d="M133.7,26h-0.4c-0.6-3.1-3.5-5.1-6.6-4.6c-2.3,0.4-4.2,2.2-4.6,4.6h-0.4c-1.6,0-2.9,1.3-2.9,2.9l0,0v7.8
			c0,1.6,1.3,2.9,2.9,2.9l0,0h11.9c1.6,0,2.9-1.3,2.9-2.8l0,0v-7.9C136.5,27.3,135.2,26,133.7,26z M128.4,34v1.7h-1.2v-1.6
			c-0.8-0.3-1.4-1.1-1.4-2c-0.1-1.1,0.8-2,1.9-2.1c1.1,0.1,1.9,1,1.9,2.1C129.6,32.9,129.1,33.7,128.4,34z M123.1,26
			c0.5-2.5,3-4.1,5.6-3.6c1.8,0.4,3.2,1.8,3.6,3.6H123.1z"/>
		<text transform="matrix(1 0 0 1 18.37 113.42)" class="st7 st4 st9">C</text>
		<text transform="matrix(1 0 0 1 35.79 113.42)" class="st7 st4 st9">u</text>
		<text transform="matrix(1 0 0 1 50.12 113.42)" class="st7 st4 st9">t</text>
		<text transform="matrix(1 0 0 1 58.7 113.42)" class="st7 st4 st9">e</text>
		<text transform="matrix(1 0 0 1 72.66 113.42)" class="st7 st4 st9"> </text>
		<text transform="matrix(1 0 0 1 80.41 113.42)" class="st7 st4 st9">n</text>
		<text transform="matrix(1 0 0 1 95.2 113.42)" class="st7 st4 st9">g</text>
		<text transform="matrix(1 0 0 1 110.12 113.42)" class="st7 st4 st9"> </text>
		<text transform="matrix(1 0 0 1 115.79 113.42)" class="st7 st4 st9">c</text>
		<text transform="matrix(1 0 0 1 130.12 113.42)" class="st7 st4 st9">h</text>
		<text transform="matrix(1 0 0 1 143.3 113.42)" class="st7 st4 st9">e</text>
		<text transform="matrix(1 0 0 1 156.79 113.42)" class="st7 st4 st9">e</text>
		<text transform="matrix(1 0 0 1 171.17 113.42)" class="st7 st4 st9">k</text>
		<text transform="matrix(1 0 0 1 184.61 113.42)" class="st7 st4 st9">b</text>
		<text transform="matrix(1 0 0 1 199.41 113.42)" class="st7 st4 st9">o</text>
		<text transform="matrix(1 0 0 1 214.67 113.42)" class="st7 st4 st9">n</text>
		<text transform="matrix(1 0 0 1 228.37 113.42)" class="st7 st4 st9">e</text>
		<text transform="matrix(1 0 0 1 242.33 113.42)" class="st7 st4 st9"> </text>
		<text transform="matrix(1 0 0 1 249.04 113.42)" class="st7 st4 st9">m</text>
		<text transform="matrix(1 0 0 1 272.1 113.42)" class="st7 st4 st9">o</text>
		<text transform="matrix(1 0 0 1 287.02 113.42)" class="st7 st4 st9 st10"> </text>
		<text transform="matrix(1 0 0 1 292.17 113.42)" class="st7 st4 st9">s</text>
		<text transform="matrix(1 0 0 1 304.96 113.42)" class="st7 st4 st9">k</text>
		<text transform="matrix(1 0 0 1 317.86 113.42)" class="st7 st4 st9">l</text>
		<text transform="matrix(1 0 0 1 323.63 113.42)" class="st7 st4 st9"> </text>
		<text transform="matrix(1 0 0 1 332.42 113.42)" class="st7 st4 st9">—</text>
		<text transform="matrix(1 0 0 1 363.61 113.42)" class="st7 st4 st9">C</text>
		<text transform="matrix(1 0 0 1 381.55 113.42)" class="st7 st4 st9">ut</text>
		<text transform="matrix(1 0 0 1 403.94 113.42)" class="st7 st4 st9">e</text>
		<text transform="matrix(1 0 0 1 417.9 113.42)" class="st7 st4 st9"> </text>
		<text transform="matrix(1 0 0 1 424.08 113.42)" class="st7 st4 st9">d</text>
		<text transform="matrix(1 0 0 1 440.23 113.42)" class="st7 st4 st9">i</text>
		<text transform="matrix(1 0 0 1 446.76 113.42)" class="st7 st4 st9">n </text>
		<text transform="matrix(1 0 0 1 468.44 113.42)" class="st7 st4 st9">n</text>
		<text transform="matrix(1 0 0 1 482.66 113.42)" class="st7 st4 st9">a</text>
		<text transform="matrix(1 0 0 1 497.07 113.42)" class="st7 st4 st9">m</text>
		<text transform="matrix(1 0 0 1 518.05 113.42)" class="st7 st4 st9">a</text>
		<text transform="matrix(1 0 0 1 532.45 113.42)" class="st7 st4 st9">n</text>
		<text transform="matrix(1 0 0 1 546.91 113.42)" class="st7 st4 st9"> </text>
		<text transform="matrix(1 0 0 1 553.62 113.42)" class="st7 st4 st9">a</text>
		<text transform="matrix(1 0 0 1 566.82 113.42)" class="st7 st4 st9">q</text>
		<text transform="matrix(1 0 0 1 18.89 186.14)" class="st1 st4 st9">..</text>
		<text transform="matrix(1 0 0 1 31.61 186.14)" class="st1 st4 st9">.</text>
		<text transform="matrix(1 0 0 1 308.57 144.1)" class="st1 st4 st9">c</text>
		<text transform="matrix(1 0 0 1 321.28 144.1)" class="st1 st4 st9">u</text>
		<text transform="matrix(1 0 0 1 336.08 144.1)" class="st1 st4 st9">r</text>
		<text transform="matrix(1 0 0 1 345.18 144.1)" class="st1 st4 st9">io</text>
		<text transform="matrix(1 0 0 1 366.45 144.1)" class="st1 st4 st9">us</text>
		<text transform="matrix(1 0 0 1 391.61 144.1)" class="st1 st4 st9">c</text>
		<text transform="matrix(1 0 0 1 404.46 144.1)" class="st1 st4 st9">a</text>
		<text transform="matrix(1 0 0 1 417.66 144.1)" class="st1 st4 st9">t</text>
		<text transform="matrix(1 0 0 1 425.05 144.1)" class="st1 st4 st9">.</text>
		<text transform="matrix(1 0 0 1 431.26 144.1)" class="st1 st4 st9">m</text>
		<text transform="matrix(1 0 0 1 453.23 144.1)" class="st1 st4 st9">e</text>
		<text transform="matrix(1 0 0 1 468.65 144.1)" class="st1 st4 st9">/</text>
		<text transform="matrix(1 0 0 1 476.89 144.1)" class="st1 st4 st9">e</text>
		<text transform="matrix(1 0 0 1 490.58 144.1)" class="st1 st4 st9">z</text>
		<text transform="matrix(1 0 0 1 503.22 144.1)" class="st1 st4 st9">l</text>
		<text transform="matrix(1 0 0 1 509.25 144.1)" class="st1 st4 st9">r</text>
		<text transform="matrix(1 0 0 1 517.57 144.1)" class="st1 st4 st9">s</text>
		<text transform="matrix(1 0 0 1 531.17 144.1)" class="st1 st4 st9">/</text>
		<text transform="matrix(1 0 0 1 539.51 144.1)" class="st1 st4 st9">p</text>
		<text transform="matrix(1 0 0 1 554.31 144.1)" class="st1 st4 st9">o</text>
		<text transform="matrix(1 0 0 1 569.07 144.1)" class="st1 st4 st9">s</text>
		<text transform="matrix(1 0 0 1 581.42 144.1)" class="st1 st4 st9">t</text>
		<text transform="matrix(1 0 0 1 591.33 144.1)" class="st1 st4 st9">/</text>
		<text transform="matrix(1 0 0 1 599.78 144.1)" class="st1 st4 st9">6</text>
		<text transform="matrix(1 0 0 1 613.64 144.1)" class="st1 st4 st9">8</text>
		<text transform="matrix(1 0 0 1 627.47 144.1)" class="st1 st4 st9">9</text>
		<path class="st11" d="M299.5,132.7c-3.1,13.3-15.4,17.7-15.4,17.7s-12.3-4.5-15.4-17.7s15.4-14.8,15.4-6.7
			C284.2,117.9,302.6,119.4,299.5,132.7z"/>
		<path class="st12" d="M293.6,148.4l1.3-3.8c0.1-0.3,0.3-0.5,0.6-0.6l3.7-1.4c0.1,0,0.2-0.2,0.2-0.3s-0.1-0.1-0.2-0.2l-3.8-1.4
			c-0.3-0.1-0.5-0.3-0.6-0.6l-1.4-3.7c0-0.1-0.2-0.2-0.3-0.2c-0.1,0-0.1,0.1-0.2,0.2l-1.4,3.8c-0.1,0.3-0.3,0.5-0.6,0.6l-3.7,1.4
			c-0.1,0-0.2,0.2-0.2,0.3s0.1,0.1,0.2,0.2l3.8,1.3c0.3,0.1,0.6,0.3,0.7,0.6l1.3,3.7c0,0.1,0.2,0.2,0.3,0.2
			C293.5,148.6,293.6,148.5,293.6,148.4z"/>
		<path class="st12" d="M275,132.5l0.9-2.6c0.1-0.3,0.4-0.6,0.7-0.7l2.6-1c0.1,0,0.2-0.1,0.1-0.3c0-0.1-0.1-0.1-0.1-0.1l-2.6-1
			c-0.3-0.1-0.6-0.4-0.7-0.7l-1-2.6c0-0.1-0.1-0.2-0.3-0.1c-0.1,0-0.1,0.1-0.1,0.1l-1,2.6c-0.1,0.3-0.4,0.6-0.7,0.7l-2.6,1
			c-0.1,0-0.2,0.2-0.1,0.3c0,0.1,0.1,0.1,0.1,0.1l2.7,0.9c0.3,0.1,0.6,0.4,0.7,0.7l0.9,2.6c0,0.1,0.1,0.2,0.2,0.2
			C274.9,132.6,275,132.6,275,132.5z"/>
		<text transform="matrix(1 0 0 1 19.46 144.1)" class="st7 st4 st9">h</text>
		<text transform="matrix(1 0 0 1 33.69 144.1)" class="st7 st4 st9">e</text>
		<text transform="matrix(1 0 0 1 47.61 144.1)" class="st7 st4 st9">h</text>
		<text transform="matrix(1 0 0 1 61.84 144.1)" class="st7 st4 st9">e</text>
		<text transform="matrix(1 0 0 1 75.31 144.1)" class="st7 st4 st9">,,</text>
		<text transform="matrix(1 0 0 1 87.92 144.1)" class="st7 st4 st9">,</text>
		<text transform="matrix(1 0 0 1 95.15 144.1)" class="st7 st4 st9 st10"> </text>
		<text transform="matrix(1 0 0 1 100.29 144.1)" class="st7 st4 st9">b</text>
		<text transform="matrix(1 0 0 1 115.53 144.1)" class="st7 st4 st9">u</text>
		<text transform="matrix(1 0 0 1 129.87 144.1)" class="st7 st4 st9">t</text>
		<text transform="matrix(1 0 0 1 138.05 144.1)" class="st7 st4 st9"> </text>
		<text transform="matrix(1 0 0 1 146.32 144.1)" class="st7 st4 st9">t</text>
		<text transform="matrix(1 0 0 1 154.15 144.1)" class="st7 st4 st9">h</text>
		<text transform="matrix(1 0 0 1 168.38 144.1)" class="st7 st4 st9">a</text>
		<text transform="matrix(1 0 0 1 182.25 144.1)" class="st7 st4 st9">n</text>
		<text transform="matrix(1 0 0 1 196.41 144.1)" class="st7 st4 st9">k </text>
		<text transform="matrix(1 0 0 1 217.14 144.1)" class="st7 st4 st9">y</text>
		<text transform="matrix(1 0 0 1 229.5 144.1)" class="st7 st4 st9">o</text>
		<text transform="matrix(1 0 0 1 244.2 144.1)" class="st7 st4 st9">u</text>
		<defs>
			<filter id="Adobe_OpacityMaskFilter" filterUnits="userSpaceOnUse" x="19" y="15" width="54" height="54">
				<feColorMatrix  type="matrix" values="1 0 0 0 0  0 1 0 0 0  0 0 1 0 0  0 0 0 1 0"/>
			</filter>
		</defs>
		<mask maskUnits="userSpaceOnUse" x="19" y="15" width="54" height="54" id="SVGID_1_">
			<g class="st13">
				<circle class="st7" cx="45.9" cy="41.5" r="27"/>
			</g>
		</mask>
		<g class="st14">
			<g class="st15">
				<g class="st15">
					
						<image style="overflow:visible;" width="1080" height="1080" xlink:href="../../SVG/6011FA49.png"  transform="matrix(5.000000e-02 0 0 5.000000e-02 19 15)">
					</image>
				</g>
			</g>
		</g>
	</g>
</g>
</svg>
